<svg width="330" height="199" viewBox="0 0 330 199" fill="none" xmlns="http://www.w3.org/2000/svg">
<rect width="330" height="199" rx="24" fill="#2A3C4E"/>
<path d="M155.814 69.4391C156.402 69.4391 157.002 69.6602 157.442 70.1055L164.505 77.0472L166.493 75.0924L157.329 66.085C159.341 62.1088 159.115 57.2108 156.346 53.3235C153.633 49.5362 149.193 47.6702 144.82 48.0479L150.663 56.2323C151.464 57.3663 151.181 58.9101 150.04 59.6987L143.725 64.0636C142.572 64.851 141.001 64.5856 140.199 63.4516L134.345 55.256C132.505 59.1878 132.776 63.9292 135.475 67.7165C138.685 72.2047 144.335 73.9928 149.43 72.5601L159.25 82.2117L161.249 80.257L154.187 73.3154C153.284 72.4257 153.284 70.9941 154.187 70.1055C154.629 69.6602 155.227 69.4391 155.814 69.4391ZM195.758 95.383C192.628 90.9082 187.081 89.0534 182.03 90.364L172.606 81.1011L170.617 83.0558L176.945 89.2744C177.848 90.164 177.848 91.5957 176.945 92.4853C176.493 92.9296 175.906 93.1517 175.306 93.1517C174.718 93.1517 174.132 92.9296 173.679 92.4853L167.352 86.2545L165.363 88.2204L173.972 96.6825C171.861 100.659 171.995 105.613 174.753 109.567C177.42 113.388 181.849 115.286 186.234 114.965L180.47 106.713C179.68 105.579 179.974 104.047 181.125 103.258L187.488 98.9605C188.64 98.183 190.211 98.4718 191.012 99.5935L196.764 107.846C198.651 103.947 198.426 99.1926 195.758 95.383Z" fill="#46DBBF"/>
<path d="M163.138 92.9296C162.71 93.3505 162.013 93.3505 161.585 92.9296L154.459 85.9258C154.03 85.5037 154.03 84.8207 154.459 84.3986L154.841 84.0232C155.268 83.6022 155.966 83.6022 156.395 84.0232L163.52 91.0281C163.949 91.4491 163.949 92.1343 163.52 92.5553L163.138 92.9296Z" fill="#46DBBF"/>
<path d="M159.976 94.4848L142.484 113.233C141.885 113.821 141.206 114.265 140.46 114.553C139.895 114.788 139.319 114.92 138.733 114.965C138.541 114.988 138.349 114.999 138.145 114.999C136.575 115.009 135.003 114.421 133.805 113.243C131.398 110.878 131.398 107.056 133.805 104.703L152.867 87.5098L159.976 94.4848Z" fill="#46DBBF"/>
<path d="M191.872 58.8202L188.912 63.3972L186.291 64.4967L162.775 87.6196L159.86 84.754L183.386 61.6312L184.504 59.0656L189.161 56.1546L189.408 56.4L185.974 59.2211C185.374 59.8097 185.646 61.0759 186.246 61.6757C186.866 62.2754 188.188 62.6297 188.799 62.0311L191.613 58.5658L191.872 58.8202Z" fill="#46DBBF"/>
<path d="M100.178 148.672C100.09 148.816 99.9978 148.924 99.9018 148.996C99.8058 149.06 99.6858 149.092 99.5418 149.092C99.3898 149.092 99.2178 149.028 99.0258 148.9C98.8418 148.772 98.6098 148.632 98.3298 148.48C98.0578 148.32 97.7338 148.176 97.3578 148.048C96.9818 147.912 96.5338 147.844 96.0138 147.844C95.5338 147.844 95.1098 147.904 94.7418 148.024C94.3818 148.144 94.0778 148.312 93.8298 148.528C93.5818 148.744 93.3938 149 93.2658 149.296C93.1458 149.584 93.0858 149.9 93.0858 150.244C93.0858 150.684 93.2018 151.052 93.4338 151.348C93.6658 151.636 93.9698 151.884 94.3458 152.092C94.7298 152.3 95.1658 152.484 95.6538 152.644C96.1418 152.796 96.6378 152.96 97.1418 153.136C97.6538 153.312 98.1538 153.512 98.6418 153.736C99.1298 153.96 99.5618 154.244 99.9378 154.588C100.322 154.932 100.63 155.352 100.862 155.848C101.094 156.344 101.21 156.948 101.21 157.66C101.21 158.428 101.078 159.148 100.814 159.82C100.55 160.492 100.166 161.08 99.6618 161.584C99.1658 162.08 98.5498 162.472 97.8138 162.76C97.0858 163.048 96.2538 163.192 95.3178 163.192C94.7658 163.192 94.2258 163.136 93.6978 163.024C93.1778 162.92 92.6778 162.772 92.1978 162.58C91.7258 162.38 91.2818 162.14 90.8658 161.86C90.4498 161.58 90.0778 161.268 89.7498 160.924L90.5658 159.58C90.6378 159.468 90.7298 159.38 90.8418 159.316C90.9538 159.252 91.0778 159.22 91.2138 159.22C91.3978 159.22 91.6018 159.308 91.8258 159.484C92.0498 159.652 92.3178 159.84 92.6298 160.048C92.9498 160.248 93.3338 160.436 93.7818 160.612C94.2298 160.78 94.7658 160.864 95.3898 160.864C96.4058 160.864 97.1898 160.616 97.7418 160.12C98.3018 159.624 98.5818 158.94 98.5818 158.068C98.5818 157.58 98.4658 157.184 98.2338 156.88C98.0018 156.568 97.6938 156.308 97.3098 156.1C96.9338 155.892 96.5018 155.716 96.0138 155.572C95.5258 155.428 95.0298 155.276 94.5258 155.116C94.0218 154.948 93.5258 154.756 93.0378 154.54C92.5498 154.316 92.1138 154.028 91.7298 153.676C91.3538 153.316 91.0498 152.876 90.8178 152.356C90.5858 151.828 90.4698 151.172 90.4698 150.388C90.4698 149.764 90.5898 149.16 90.8298 148.576C91.0778 147.992 91.4338 147.476 91.8978 147.028C92.3698 146.572 92.9498 146.208 93.6378 145.936C94.3258 145.664 95.1098 145.528 95.9898 145.528C96.9818 145.528 97.8898 145.684 98.7138 145.996C99.5458 146.308 100.262 146.752 100.862 147.328L100.178 148.672ZM111.745 155.5C111.745 155.068 111.681 154.668 111.553 154.3C111.433 153.924 111.253 153.6 111.013 153.328C110.773 153.048 110.473 152.832 110.113 152.68C109.761 152.52 109.353 152.44 108.889 152.44C107.953 152.44 107.217 152.708 106.681 153.244C106.145 153.78 105.805 154.532 105.661 155.5H111.745ZM105.589 157.084C105.621 157.78 105.729 158.384 105.913 158.896C106.097 159.4 106.341 159.82 106.645 160.156C106.957 160.492 107.325 160.744 107.749 160.912C108.181 161.072 108.661 161.152 109.189 161.152C109.693 161.152 110.129 161.096 110.497 160.984C110.865 160.864 111.185 160.736 111.457 160.6C111.729 160.456 111.961 160.328 112.153 160.216C112.345 160.096 112.521 160.036 112.681 160.036C112.889 160.036 113.049 160.116 113.161 160.276L113.893 161.224C113.589 161.584 113.245 161.888 112.861 162.136C112.477 162.384 112.069 162.588 111.637 162.748C111.205 162.9 110.761 163.008 110.305 163.072C109.849 163.144 109.405 163.18 108.973 163.18C108.125 163.18 107.337 163.04 106.609 162.76C105.889 162.472 105.261 162.052 104.725 161.5C104.197 160.948 103.781 160.264 103.477 159.448C103.181 158.632 103.033 157.692 103.033 156.628C103.033 155.78 103.165 154.988 103.429 154.252C103.701 153.516 104.085 152.876 104.581 152.332C105.085 151.788 105.693 151.36 106.405 151.048C107.125 150.728 107.937 150.568 108.841 150.568C109.593 150.568 110.289 150.692 110.929 150.94C111.569 151.18 112.121 151.536 112.585 152.008C113.049 152.48 113.409 153.06 113.665 153.748C113.929 154.428 114.061 155.204 114.061 156.076C114.061 156.476 114.017 156.744 113.929 156.88C113.841 157.016 113.681 157.084 113.449 157.084H105.589ZM118.903 153.028C119.287 152.252 119.751 151.644 120.295 151.204C120.839 150.756 121.491 150.532 122.251 150.532C122.515 150.532 122.763 150.564 122.995 150.628C123.227 150.684 123.435 150.772 123.619 150.892L123.439 152.836C123.407 152.972 123.355 153.068 123.283 153.124C123.219 153.172 123.131 153.196 123.019 153.196C122.899 153.196 122.727 153.176 122.503 153.136C122.279 153.088 122.043 153.064 121.795 153.064C121.435 153.064 121.115 153.116 120.835 153.22C120.563 153.324 120.315 153.476 120.091 153.676C119.875 153.876 119.683 154.12 119.515 154.408C119.347 154.696 119.191 155.024 119.047 155.392V163H116.467V150.76H117.967C118.239 150.76 118.427 150.812 118.531 150.916C118.635 151.012 118.707 151.184 118.747 151.432L118.903 153.028ZM136.102 150.76L131.182 163H128.854L123.934 150.76H126.058C126.258 150.76 126.422 150.812 126.55 150.916C126.686 151.012 126.774 151.128 126.814 151.264L129.526 158.392C129.638 158.728 129.738 159.06 129.826 159.388C129.914 159.716 129.99 160.048 130.054 160.384C130.118 160.048 130.194 159.72 130.282 159.4C130.378 159.072 130.482 158.736 130.594 158.392L133.354 151.264C133.402 151.12 133.49 151 133.618 150.904C133.746 150.808 133.902 150.76 134.086 150.76H136.102ZM140.553 150.76V163H137.973V150.76H140.553ZM140.985 147.064C140.985 147.296 140.937 147.516 140.841 147.724C140.753 147.932 140.629 148.116 140.469 148.276C140.309 148.428 140.121 148.552 139.905 148.648C139.697 148.736 139.473 148.78 139.233 148.78C139.001 148.78 138.781 148.736 138.573 148.648C138.373 148.552 138.197 148.428 138.045 148.276C137.893 148.116 137.769 147.932 137.673 147.724C137.585 147.516 137.541 147.296 137.541 147.064C137.541 146.824 137.585 146.6 137.673 146.392C137.769 146.184 137.893 146.004 138.045 145.852C138.197 145.692 138.373 145.568 138.573 145.48C138.781 145.384 139.001 145.336 139.233 145.336C139.473 145.336 139.697 145.384 139.905 145.48C140.121 145.568 140.309 145.692 140.469 145.852C140.629 146.004 140.753 146.184 140.841 146.392C140.937 146.6 140.985 146.824 140.985 147.064ZM152.447 153.16C152.367 153.264 152.291 153.344 152.219 153.4C152.147 153.456 152.043 153.484 151.907 153.484C151.771 153.484 151.627 153.436 151.475 153.34C151.331 153.244 151.155 153.14 150.947 153.028C150.747 152.908 150.503 152.8 150.215 152.704C149.927 152.608 149.567 152.56 149.135 152.56C148.575 152.56 148.083 152.66 147.659 152.86C147.243 153.06 146.891 153.348 146.603 153.724C146.323 154.092 146.111 154.544 145.967 155.08C145.831 155.608 145.763 156.204 145.763 156.868C145.763 157.556 145.839 158.168 145.991 158.704C146.143 159.24 146.359 159.692 146.639 160.06C146.927 160.428 147.271 160.708 147.671 160.9C148.079 161.092 148.535 161.188 149.039 161.188C149.535 161.188 149.939 161.128 150.251 161.008C150.563 160.888 150.823 160.756 151.031 160.612C151.239 160.468 151.415 160.336 151.559 160.216C151.711 160.096 151.871 160.036 152.039 160.036C152.247 160.036 152.407 160.116 152.519 160.276L153.251 161.224C152.955 161.584 152.627 161.888 152.267 162.136C151.907 162.384 151.527 162.588 151.127 162.748C150.727 162.9 150.311 163.008 149.879 163.072C149.447 163.144 149.011 163.18 148.571 163.18C147.811 163.18 147.099 163.04 146.435 162.76C145.779 162.472 145.203 162.06 144.707 161.524C144.219 160.98 143.831 160.32 143.543 159.544C143.263 158.76 143.123 157.868 143.123 156.868C143.123 155.964 143.251 155.128 143.507 154.36C143.763 153.584 144.135 152.916 144.623 152.356C145.119 151.796 145.731 151.36 146.459 151.048C147.187 150.728 148.027 150.568 148.979 150.568C149.867 150.568 150.647 150.712 151.319 151C151.999 151.288 152.603 151.696 153.131 152.224L152.447 153.16ZM163.143 155.5C163.143 155.068 163.079 154.668 162.951 154.3C162.831 153.924 162.651 153.6 162.411 153.328C162.171 153.048 161.871 152.832 161.511 152.68C161.159 152.52 160.751 152.44 160.287 152.44C159.351 152.44 158.615 152.708 158.079 153.244C157.543 153.78 157.203 154.532 157.059 155.5H163.143ZM156.987 157.084C157.019 157.78 157.127 158.384 157.311 158.896C157.495 159.4 157.739 159.82 158.043 160.156C158.355 160.492 158.723 160.744 159.147 160.912C159.579 161.072 160.059 161.152 160.587 161.152C161.091 161.152 161.527 161.096 161.895 160.984C162.263 160.864 162.583 160.736 162.855 160.6C163.127 160.456 163.359 160.328 163.551 160.216C163.743 160.096 163.919 160.036 164.079 160.036C164.287 160.036 164.447 160.116 164.559 160.276L165.291 161.224C164.987 161.584 164.643 161.888 164.259 162.136C163.875 162.384 163.467 162.588 163.035 162.748C162.603 162.9 162.159 163.008 161.703 163.072C161.247 163.144 160.803 163.18 160.371 163.18C159.523 163.18 158.735 163.04 158.007 162.76C157.287 162.472 156.659 162.052 156.123 161.5C155.595 160.948 155.179 160.264 154.875 159.448C154.579 158.632 154.431 157.692 154.431 156.628C154.431 155.78 154.563 154.988 154.827 154.252C155.099 153.516 155.483 152.876 155.979 152.332C156.483 151.788 157.091 151.36 157.803 151.048C158.523 150.728 159.335 150.568 160.239 150.568C160.991 150.568 161.687 150.692 162.327 150.94C162.967 151.18 163.519 151.536 163.983 152.008C164.447 152.48 164.807 153.06 165.063 153.748C165.327 154.428 165.459 155.204 165.459 156.076C165.459 156.476 165.415 156.744 165.327 156.88C165.239 157.016 165.079 157.084 164.847 157.084H156.987ZM182.494 153.16C182.414 153.264 182.338 153.344 182.266 153.4C182.194 153.456 182.09 153.484 181.954 153.484C181.818 153.484 181.674 153.436 181.522 153.34C181.378 153.244 181.202 153.14 180.994 153.028C180.794 152.908 180.55 152.8 180.262 152.704C179.974 152.608 179.614 152.56 179.182 152.56C178.622 152.56 178.13 152.66 177.706 152.86C177.29 153.06 176.938 153.348 176.65 153.724C176.37 154.092 176.158 154.544 176.014 155.08C175.878 155.608 175.81 156.204 175.81 156.868C175.81 157.556 175.886 158.168 176.038 158.704C176.19 159.24 176.406 159.692 176.686 160.06C176.974 160.428 177.318 160.708 177.718 160.9C178.126 161.092 178.582 161.188 179.086 161.188C179.582 161.188 179.986 161.128 180.298 161.008C180.61 160.888 180.87 160.756 181.078 160.612C181.286 160.468 181.462 160.336 181.606 160.216C181.758 160.096 181.918 160.036 182.086 160.036C182.294 160.036 182.454 160.116 182.566 160.276L183.298 161.224C183.002 161.584 182.674 161.888 182.314 162.136C181.954 162.384 181.574 162.588 181.174 162.748C180.774 162.9 180.358 163.008 179.926 163.072C179.494 163.144 179.058 163.18 178.618 163.18C177.858 163.18 177.146 163.04 176.482 162.76C175.826 162.472 175.25 162.06 174.754 161.524C174.266 160.98 173.878 160.32 173.59 159.544C173.31 158.76 173.17 157.868 173.17 156.868C173.17 155.964 173.298 155.128 173.554 154.36C173.81 153.584 174.182 152.916 174.67 152.356C175.166 151.796 175.778 151.36 176.506 151.048C177.234 150.728 178.074 150.568 179.026 150.568C179.914 150.568 180.694 150.712 181.366 151C182.046 151.288 182.65 151.696 183.178 152.224L182.494 153.16ZM193.19 155.5C193.19 155.068 193.126 154.668 192.998 154.3C192.878 153.924 192.698 153.6 192.458 153.328C192.218 153.048 191.918 152.832 191.558 152.68C191.206 152.52 190.798 152.44 190.334 152.44C189.398 152.44 188.662 152.708 188.126 153.244C187.59 153.78 187.25 154.532 187.106 155.5H193.19ZM187.034 157.084C187.066 157.78 187.174 158.384 187.358 158.896C187.542 159.4 187.786 159.82 188.09 160.156C188.402 160.492 188.77 160.744 189.194 160.912C189.626 161.072 190.106 161.152 190.634 161.152C191.138 161.152 191.574 161.096 191.942 160.984C192.31 160.864 192.63 160.736 192.902 160.6C193.174 160.456 193.406 160.328 193.598 160.216C193.79 160.096 193.966 160.036 194.126 160.036C194.334 160.036 194.494 160.116 194.606 160.276L195.338 161.224C195.034 161.584 194.69 161.888 194.306 162.136C193.922 162.384 193.514 162.588 193.082 162.748C192.65 162.9 192.206 163.008 191.75 163.072C191.294 163.144 190.85 163.18 190.418 163.18C189.57 163.18 188.782 163.04 188.054 162.76C187.334 162.472 186.706 162.052 186.17 161.5C185.642 160.948 185.226 160.264 184.922 159.448C184.626 158.632 184.478 157.692 184.478 156.628C184.478 155.78 184.61 154.988 184.874 154.252C185.146 153.516 185.53 152.876 186.026 152.332C186.53 151.788 187.138 151.36 187.85 151.048C188.57 150.728 189.382 150.568 190.286 150.568C191.038 150.568 191.734 150.692 192.374 150.94C193.014 151.18 193.566 151.536 194.03 152.008C194.494 152.48 194.854 153.06 195.11 153.748C195.374 154.428 195.506 155.204 195.506 156.076C195.506 156.476 195.462 156.744 195.374 156.88C195.286 157.016 195.126 157.084 194.894 157.084H187.034ZM200.324 152.38C200.588 152.108 200.86 151.864 201.14 151.648C201.428 151.424 201.732 151.232 202.052 151.072C202.372 150.912 202.712 150.788 203.072 150.7C203.432 150.612 203.824 150.568 204.248 150.568C204.92 150.568 205.508 150.68 206.012 150.904C206.524 151.128 206.952 151.444 207.296 151.852C207.648 152.26 207.912 152.752 208.088 153.328C208.264 153.896 208.352 154.524 208.352 155.212V163H205.784V155.212C205.784 154.388 205.592 153.748 205.208 153.292C204.832 152.836 204.256 152.608 203.48 152.608C202.904 152.608 202.368 152.74 201.872 153.004C201.384 153.268 200.924 153.628 200.492 154.084V163H197.912V150.76H199.472C199.824 150.76 200.048 150.924 200.144 151.252L200.324 152.38ZM215.125 163.192C214.109 163.192 213.325 162.908 212.773 162.34C212.229 161.764 211.957 160.956 211.957 159.916V152.788H210.613C210.469 152.788 210.345 152.744 210.241 152.656C210.137 152.56 210.085 152.42 210.085 152.236V151.192L212.065 150.904L212.629 147.364C212.669 147.228 212.737 147.12 212.833 147.04C212.929 146.952 213.057 146.908 213.217 146.908H214.537V150.928H217.933V152.788H214.537V159.736C214.537 160.176 214.645 160.512 214.861 160.744C215.077 160.976 215.365 161.092 215.725 161.092C215.925 161.092 216.097 161.068 216.241 161.02C216.385 160.964 216.509 160.908 216.613 160.852C216.717 160.788 216.805 160.732 216.877 160.684C216.957 160.628 217.033 160.6 217.105 160.6C217.249 160.6 217.365 160.68 217.453 160.84L218.221 162.1C217.821 162.452 217.349 162.724 216.805 162.916C216.261 163.1 215.701 163.192 215.125 163.192ZM227.901 155.5C227.901 155.068 227.837 154.668 227.709 154.3C227.589 153.924 227.409 153.6 227.169 153.328C226.929 153.048 226.629 152.832 226.269 152.68C225.917 152.52 225.509 152.44 225.045 152.44C224.109 152.44 223.373 152.708 222.837 153.244C222.301 153.78 221.961 154.532 221.817 155.5H227.901ZM221.745 157.084C221.777 157.78 221.885 158.384 222.069 158.896C222.253 159.4 222.497 159.82 222.801 160.156C223.113 160.492 223.481 160.744 223.905 160.912C224.337 161.072 224.817 161.152 225.345 161.152C225.849 161.152 226.285 161.096 226.653 160.984C227.021 160.864 227.341 160.736 227.613 160.6C227.885 160.456 228.117 160.328 228.309 160.216C228.501 160.096 228.677 160.036 228.837 160.036C229.045 160.036 229.205 160.116 229.317 160.276L230.049 161.224C229.745 161.584 229.401 161.888 229.017 162.136C228.633 162.384 228.225 162.588 227.793 162.748C227.361 162.9 226.917 163.008 226.461 163.072C226.005 163.144 225.561 163.18 225.129 163.18C224.281 163.18 223.493 163.04 222.765 162.76C222.045 162.472 221.417 162.052 220.881 161.5C220.353 160.948 219.937 160.264 219.633 159.448C219.337 158.632 219.189 157.692 219.189 156.628C219.189 155.78 219.321 154.988 219.585 154.252C219.857 153.516 220.241 152.876 220.737 152.332C221.241 151.788 221.849 151.36 222.561 151.048C223.281 150.728 224.093 150.568 224.997 150.568C225.749 150.568 226.445 150.692 227.085 150.94C227.725 151.18 228.277 151.536 228.741 152.008C229.205 152.48 229.565 153.06 229.821 153.748C230.085 154.428 230.217 155.204 230.217 156.076C230.217 156.476 230.173 156.744 230.085 156.88C229.997 157.016 229.837 157.084 229.605 157.084H221.745ZM235.059 153.028C235.443 152.252 235.907 151.644 236.451 151.204C236.995 150.756 237.647 150.532 238.407 150.532C238.671 150.532 238.919 150.564 239.151 150.628C239.383 150.684 239.591 150.772 239.775 150.892L239.595 152.836C239.563 152.972 239.511 153.068 239.439 153.124C239.375 153.172 239.287 153.196 239.175 153.196C239.055 153.196 238.883 153.176 238.659 153.136C238.435 153.088 238.199 153.064 237.951 153.064C237.591 153.064 237.271 153.116 236.991 153.22C236.719 153.324 236.471 153.476 236.247 153.676C236.031 153.876 235.839 154.12 235.671 154.408C235.503 154.696 235.347 155.024 235.203 155.392V163H232.623V150.76H234.123C234.395 150.76 234.583 150.812 234.687 150.916C234.791 151.012 234.863 151.184 234.903 151.432L235.059 153.028Z" fill="white"/>
</svg>
