<svg width="59" height="66" viewBox="0 0 59 66" fill="none" xmlns="http://www.w3.org/2000/svg">
<path fill-rule="evenodd" clip-rule="evenodd" d="M3.4381 24.2305C1.58006 26.4527 0.167245 28.9579 0.0722656 32.3483V63.5972C0.0722656 64.2361 0.322434 64.8488 0.767736 65.3005C1.21304 65.7523 1.817 66.006 2.44675 66.006H56.6503C57.28 66.006 57.884 65.7523 58.3293 65.3005C58.7746 64.8488 59.0248 64.2361 59.0248 63.5972V35.1065C59.0625 32.2247 58.7313 29.3502 58.0394 26.555C56.4544 19.7741 53.5516 12.3548 51.3493 5.44143C50.0492 1.82815 47.3957 0.431013 43.9646 0.28046H31.742C29.4803 0.28046 28.2752 0.117862 26.0966 0.882673C24.2124 1.50248 22.4731 2.50667 20.9855 3.83352L3.4381 24.2305ZM30.151 9.46422C29.5574 8.862 29.783 8.14537 30.4538 8.11526H41.9344C42.5728 8.22342 43.1705 8.50428 43.6647 8.92822C44.1588 9.35217 44.5311 9.9035 44.7423 10.5241L49.6871 24.375C49.972 25.2422 49.414 25.6939 48.5652 24.9411L30.151 9.46422Z" fill="#46DBBF"/>
</svg>
